<svg id="Partner-logo-superants" xmlns="http://www.w3.org/2000/svg" xmlns:xlink="http://www.w3.org/1999/xlink" width="280" height="280" viewBox="0 0 280 280">
  <defs>
    <clipPath id="clip-path">
      <rect id="Rectangle_1620" data-name="Rectangle 1620" width="268.366" height="200.237" fill="none"/>
    </clipPath>
  </defs>
  <g id="Group_5990" data-name="Group 5990" transform="translate(6 40)">
    <g id="Group_5989" data-name="Group 5989" clip-path="url(#clip-path)">
      <path id="Path_7823" data-name="Path 7823" d="M99.544,72.287V61.939H134.5l19.809-21.86-4.193-7.261L134.5,51.356H108.858A23.208,23.208,0,0,0,105.5,11.11l4.024-6.357h-5.715L100.8,9.512A22.076,22.076,0,0,0,92.481,9.2L89.662,4.753H83.948l3.616,5.711a23.206,23.206,0,0,0-4.906,40.892h-25.4L43.979,37.247,39.918,44.28,57.262,61.939H93.653V72.287H56.772L39.861,88.412l4.081,7.069L56.772,82.87H82.713a23.229,23.229,0,1,0,26.088,0h25.21l15.9,17.463,4.2-7.276-20.1-20.77ZM79.11,34.732A16.648,16.648,0,1,1,96.253,51.356h-.99A16.637,16.637,0,0,1,79.11,34.732m33.3,64.8A16.648,16.648,0,1,1,95.757,82.887a16.648,16.648,0,0,1,16.649,16.649" transform="translate(35.844 4.274)" fill="#040504"/>
      <path id="Path_7824" data-name="Path 7824" d="M185.02,62.568,153.575,8.1A16.251,16.251,0,0,0,139.543,0H76.649a16.248,16.248,0,0,0-14.03,8.1L31.172,62.568a16.253,16.253,0,0,0,0,16.2l31.447,54.468a16.243,16.243,0,0,0,14.03,8.1h62.895a16.249,16.249,0,0,0,14.031-8.1L185.02,78.768a16.244,16.244,0,0,0,0-16.2M177.2,74.254,163.88,97.329l-4.2,7.278-13.923,24.114a7.2,7.2,0,0,1-6.212,3.588H76.649a7.19,7.19,0,0,1-6.21-3.588L53.712,99.753,49.63,92.684,38.991,74.254a7.182,7.182,0,0,1,0-7.17l10.7-18.533,4.059-7.033,16.69-28.906a7.192,7.192,0,0,1,6.21-3.586h62.895a7.2,7.2,0,0,1,6.212,3.586L159.888,37.09l4.192,7.265L177.2,67.082a7.19,7.19,0,0,1,0,7.171" transform="translate(26.086 0)" fill="#040504"/>
      <path id="Path_7825" data-name="Path 7825" d="M0,113.641H15.676v-6.588H.04V90.387H23.93v5.278H8.294v6.11H23.93v17.184H0Z" transform="translate(0 81.278)" fill="#040504"/>
      <path id="Path_7826" data-name="Path 7826" d="M15.628,90.387h8.214v23.294H34V90.387h8.216v28.572H15.628Z" transform="translate(14.053 81.278)" fill="#040504"/>
      <path id="Path_7827" data-name="Path 7827" d="M32.657,90.387H58.133v19.007H40.871v9.564H32.657Zm8.214,13.729h9.048V95.625H40.871Z" transform="translate(29.366 81.278)" fill="#040504"/>
      <path id="Path_7828" data-name="Path 7828" d="M48.744,90.387H71.484v5.278H57v6.072H69.9v5.278H57v6.626h15.04v5.318H48.744Z" transform="translate(43.832 81.278)" fill="#040504"/>
      <path id="Path_7829" data-name="Path 7829" d="M75.607,108.363h-3.69v10.6H63.663V90.387H89.418v17.976H84.855l2.1,5.318h4.127v5.278H79.854Zm-3.69-5.278H81.2v-7.46H71.917Z" transform="translate(57.247 81.278)" fill="#040504"/>
      <path id="Path_7830" data-name="Path 7830" d="M88.328,90.387h11.9l9.287,28.572h-8.81l-1.388-4.721H89.28l-1.348,4.721h-8.85Zm2.619,18.056h6.706L94.28,96.9Z" transform="translate(71.111 81.278)" fill="#040504"/>
      <path id="Path_7831" data-name="Path 7831" d="M97.071,90.387H106.6l7.58,14.723,1.388,3.253.317-.2-.237-5.16V90.387H123.7v28.572h-9.525l-7.7-15-1.588-3.85-.317.2.556,6.269v12.381H97.071Z" transform="translate(87.288 81.278)" fill="#040504"/>
      <path id="Path_7832" data-name="Path 7832" d="M113.2,90.387h25.438v5.635h-8.573v22.937h-8.254V96.022H113.2Z" transform="translate(101.793 81.278)" fill="#040504"/>
      <path id="Path_7833" data-name="Path 7833" d="M128.7,113.641H144.38v-6.588H128.744V90.387h23.89v5.278H137v6.11h15.636v17.184H128.7Z" transform="translate(115.733 81.278)" fill="#040504"/>
    </g>
  </g>
  <rect id="Rectangle_1632" data-name="Rectangle 1632" width="280" height="280" fill="none"/>
</svg>
