<svg id="Partner-logo-arctowers" xmlns="http://www.w3.org/2000/svg" xmlns:xlink="http://www.w3.org/1999/xlink" width="280" height="280" viewBox="0 0 280 280">
  <defs>
    <clipPath id="clip-path">
      <rect id="Rectangle_1623" data-name="Rectangle 1623" width="207.046" height="244.844" fill="none"/>
    </clipPath>
  </defs>
  <g id="Group_5998" data-name="Group 5998" transform="translate(36.977 17.876)">
    <path id="Path_7852" data-name="Path 7852" d="M99.636,0,6.936,209.013l.59.322L99.645,1.665l94.282,207.674.586-.328Z" transform="translate(5.691 0)" fill="#040504"/>
    <path id="Path_7853" data-name="Path 7853" d="M88.083,32.923,153.99,183.208l-131.71-.066Z" transform="translate(18.281 27.015)" fill="#fff"/>
    <g id="Group_5997" data-name="Group 5997" transform="translate(0 0)">
      <g id="Group_5996" data-name="Group 5996" clip-path="url(#clip-path)">
        <path id="Path_7854" data-name="Path 7854" d="M35.868,106.068c5.045-10.379,14.637-17,25.207-17.4,17.6-.257,29.405,16.345,49.577,15.283S134.4,93.122,134.4,93.122l19.454,44.53L22.443,137.3Z" transform="translate(18.415 72.754)" fill="#97999d"/>
        <path id="Path_7855" data-name="Path 7855" d="M33.9,134.8,78.537,32.968l41.106,93.5s-5.36,7.674-21.269,7.4-28.109-14.513-42.489-14.513S33.9,134.8,33.9,134.8" transform="translate(27.819 27.051)" fill="#040504"/>
        <path id="Path_7856" data-name="Path 7856" d="M22.28,132.984l11.659-26.39C39.548,97.2,54.664,93.773,61.984,94.07c21.331.863,28.155,19.369,49.739,18.265S139.4,99.972,139.4,99.972l14.584,33.238Z" transform="translate(18.282 77.173)" fill="#545454"/>
        <path id="Path_7857" data-name="Path 7857" d="M1.937,142.074H0L7.5,124.71H9.221l7.455,17.364H14.715L12.8,137.512H3.825Zm2.551-6.181h7.652l-3.825-9.221Z" transform="translate(0 102.329)" fill="#040504"/>
        <path id="Path_7858" data-name="Path 7858" d="M15.549,142.073H13.781V124.709h5.1a10.77,10.77,0,0,1,2.367.246,5.348,5.348,0,0,1,1.89.8,3.781,3.781,0,0,1,1.238,1.435,4.76,4.76,0,0,1,.442,2.159,4.256,4.256,0,0,1-1.276,3.1,4.5,4.5,0,0,1-1.4.919,6,6,0,0,1-1.766.441l5.077,8.265H23.3l-4.806-8.118H15.549Zm0-9.638h3.064a5.882,5.882,0,0,0,3.286-.772,2.606,2.606,0,0,0,1.152-2.318,2.975,2.975,0,0,0-.319-1.447,2.607,2.607,0,0,0-.883-.958,4.046,4.046,0,0,0-1.373-.539,8.645,8.645,0,0,0-1.79-.171H15.549Z" transform="translate(11.308 102.328)" fill="#040504"/>
        <path id="Path_7859" data-name="Path 7859" d="M40.108,139.452a7.325,7.325,0,0,1-1.067,1.253,6.92,6.92,0,0,1-1.447,1.038,8.086,8.086,0,0,1-1.815.71,8.491,8.491,0,0,1-2.17.262,9.458,9.458,0,0,1-3.63-.686,8.482,8.482,0,0,1-4.746-4.783,9.663,9.663,0,0,1-.674-3.656,9.525,9.525,0,0,1,.686-3.654,8.618,8.618,0,0,1,4.77-4.783,9.306,9.306,0,0,1,3.594-.686,8.9,8.9,0,0,1,3.6.759,7.347,7.347,0,0,1,1.473.868,5.113,5.113,0,0,1,1.1,1.143l-1.471,1.08a4.423,4.423,0,0,0-.725-.834,4.887,4.887,0,0,0-1.067-.735,6.637,6.637,0,0,0-1.336-.515,5.922,5.922,0,0,0-1.558-.2,7.2,7.2,0,0,0-3.028.612,6.808,6.808,0,0,0-2.268,1.649,7.215,7.215,0,0,0-1.424,2.409,8.463,8.463,0,0,0-.49,2.884,8.308,8.308,0,0,0,.5,2.886,7.4,7.4,0,0,0,1.435,2.409,6.827,6.827,0,0,0,2.268,1.649,7.144,7.144,0,0,0,3,.612,6.814,6.814,0,0,0,2.846-.614,33.791,33.791,0,0,1,3.63-1.08" transform="translate(20.152 102.13)" fill="#040504"/>
        <path id="Path_7860" data-name="Path 7860" d="M50.729,142.074H48.963V126.279H43.15v-1.569H56.542v1.569H50.729Z" transform="translate(35.406 102.329)" fill="#040504"/>
        <path id="Path_7861" data-name="Path 7861" d="M72.337,133.59a9.527,9.527,0,0,1-.686,3.656,8.628,8.628,0,0,1-4.772,4.783,9.747,9.747,0,0,1-7.186,0,8.633,8.633,0,0,1-4.77-4.783,10.074,10.074,0,0,1,0-7.309,8.618,8.618,0,0,1,4.77-4.783,9.747,9.747,0,0,1,7.186,0,8.613,8.613,0,0,1,4.772,4.783,9.525,9.525,0,0,1,.686,3.654m-1.864.013a8.538,8.538,0,0,0-.49-2.889,7.245,7.245,0,0,0-1.424-2.412,6.811,6.811,0,0,0-2.268-1.653,7.686,7.686,0,0,0-6.01,0,6.829,6.829,0,0,0-2.268,1.653,7.24,7.24,0,0,0-1.422,2.412,8.768,8.768,0,0,0,0,5.778,7.093,7.093,0,0,0,1.422,2.4,6.9,6.9,0,0,0,2.268,1.64,7.665,7.665,0,0,0,6.01,0,6.88,6.88,0,0,0,2.268-1.64,7.1,7.1,0,0,0,1.424-2.4,8.538,8.538,0,0,0,.49-2.889" transform="translate(44.503 102.13)" fill="#040504"/>
        <path id="Path_7862" data-name="Path 7862" d="M74.5,139.645h.049l4.34-14.936H81l4.34,14.936h.049L89.63,124.71h1.864l-5.127,17.364H84.308l-4.366-14.912h-.049l-4.366,14.912H73.467L68.342,124.71H70.2Z" transform="translate(56.077 102.329)" fill="#040504"/>
        <path id="Path_7863" data-name="Path 7863" d="M87.5,140.5h9.3v1.569H85.734V124.709H96.5v1.569h-9v5.96h8.413v1.569H87.5Z" transform="translate(70.348 102.328)" fill="#040504"/>
        <path id="Path_7864" data-name="Path 7864" d="M98.695,142.073H96.929V124.709h5.1a10.77,10.77,0,0,1,2.367.246,5.348,5.348,0,0,1,1.89.8,3.781,3.781,0,0,1,1.238,1.435,4.809,4.809,0,0,1,.441,2.159,4.245,4.245,0,0,1-1.274,3.1,4.5,4.5,0,0,1-1.4.919,6.015,6.015,0,0,1-1.766.441l5.077,8.265h-2.159l-4.806-8.118H98.695Zm0-9.638h3.066a5.882,5.882,0,0,0,3.286-.772,2.606,2.606,0,0,0,1.152-2.318,3,3,0,0,0-.319-1.447,2.607,2.607,0,0,0-.883-.958,4.046,4.046,0,0,0-1.373-.539,8.638,8.638,0,0,0-1.791-.171H98.695Z" transform="translate(79.534 102.328)" fill="#040504"/>
        <path id="Path_7865" data-name="Path 7865" d="M117.117,127.7a4.244,4.244,0,0,0-1.447-1.263,4.425,4.425,0,0,0-2.134-.477,4.614,4.614,0,0,0-1.3.195,3.781,3.781,0,0,0-1.2.6,3.085,3.085,0,0,0-.87,1.02,3,3,0,0,0-.331,1.446,2.685,2.685,0,0,0,.317,1.374,3.029,3.029,0,0,0,.845.919,4.875,4.875,0,0,0,1.2.624c.45.164.918.328,1.407.492q.9.295,1.822.637a6.577,6.577,0,0,1,1.651.9,4.338,4.338,0,0,1,1.2,1.4,4.43,4.43,0,0,1,.464,2.146,4.6,4.6,0,0,1-1.784,3.8,5.378,5.378,0,0,1-1.808.907,7.331,7.331,0,0,1-2.048.295,7.933,7.933,0,0,1-1.571-.16,7.024,7.024,0,0,1-1.495-.479,6.039,6.039,0,0,1-1.325-.808,5.932,5.932,0,0,1-1.08-1.129l1.522-1.127a4.643,4.643,0,0,0,1.582,1.557,4.469,4.469,0,0,0,2.39.624,4.639,4.639,0,0,0,1.349-.208,3.79,3.79,0,0,0,1.238-.637,3.533,3.533,0,0,0,.908-1.056,2.9,2.9,0,0,0,.355-1.458,2.935,2.935,0,0,0-.355-1.509,3.149,3.149,0,0,0-.945-1,5.767,5.767,0,0,0-1.349-.674q-.759-.27-1.593-.541-.86-.27-1.693-.614a5.716,5.716,0,0,1-1.5-.894,4.2,4.2,0,0,1-1.067-1.362,4.98,4.98,0,0,1,.1-4.145,4.549,4.549,0,0,1,1.313-1.5,5.514,5.514,0,0,1,1.79-.857,7.268,7.268,0,0,1,1.939-.269,6.689,6.689,0,0,1,3.017.624,5.189,5.189,0,0,1,1.888,1.484Z" transform="translate(88.31 102.13)" fill="#040504"/>
      </g>
    </g>
  </g>
  <rect id="Rectangle_1633" data-name="Rectangle 1633" width="280" height="280" fill="none"/>
</svg>
