<svg id="Partner-logo-abcprime" xmlns="http://www.w3.org/2000/svg" xmlns:xlink="http://www.w3.org/1999/xlink" width="280" height="280" viewBox="0 0 280 280">
  <defs>
    <clipPath id="clip-path">
      <rect id="Rectangle_1622" data-name="Rectangle 1622" width="232.919" height="223.578" fill="none"/>
    </clipPath>
  </defs>
  <g id="Group_5995" data-name="Group 5995" transform="translate(24 28)">
    <g id="Group_5994" data-name="Group 5994" transform="translate(0 0)" clip-path="url(#clip-path)">
      <path id="Path_7846" data-name="Path 7846" d="M90.874,85.555s-5.118-.241-5.118,0V95.37h4.266s6.826.613,6.826-4.908c0-4.908-5.973-4.908-5.973-4.908" transform="translate(77.114 76.836)" fill="#040504"/>
      <path id="Path_7847" data-name="Path 7847" d="M60.859,93.864H71.95L66.112,78.685Z" transform="translate(54.725 70.755)" fill="#040504"/>
      <path id="Path_7848" data-name="Path 7848" d="M93.344,80.638c0-4.67-4.087-4.67-4.087-4.67s-3.5-.23-3.5,0v9.34h2.919s4.67.583,4.67-4.67" transform="translate(77.113 68.22)" fill="#040504"/>
      <path id="Path_7849" data-name="Path 7849" d="M58.8,101.872H54.711v8.172H58.8a4.086,4.086,0,1,0,0-8.172" transform="translate(49.197 91.606)" fill="#040504"/>
      <path id="Path_7850" data-name="Path 7850" d="M73.035,101.919H69.39v7.323h2.739c2.074,0,4.408-.881,4.408-3.576,0-4.085-3.5-3.747-3.5-3.747" transform="translate(62.397 91.642)" fill="#040504"/>
      <path id="Path_7851" data-name="Path 7851" d="M0,223.578H232.919V0H0Zm215.7-89.9a24.669,24.669,0,0,1,11.382,2.769v14.829a12.907,12.907,0,0,0-10.507-5.339,12.554,12.554,0,1,0,0,25.1,12.912,12.912,0,0,0,10.507-5.339v14.829A24.809,24.809,0,1,1,215.7,133.679M114.415,135.43h13.428l17.513,46.117H132.513l-2.919-8.172H112.081l-2.334,8.172H96.319Zm5.255,62.824a9.261,9.261,0,0,1-9.234,9.234h-5.945v10.507H96.9V187.639h13.534a9.261,9.261,0,0,1,9.234,9.234ZM140.1,218l-8.317-12.1V218H124.31V187.645h10.537s6.421-.26,9.34,2.659c1.654,1.652,2.336,4.758,2.336,7.589,0,4.668-3.774,7.213-6.421,8.172L149.44,218Zm10.507-82.574h16.93s14.594-1.166,14.594,11.676c0,6.421-4.67,9.923-5.838,9.923,1.751,0,9.925.583,9.925,11.091s-7.589,13.426-15.179,13.426H150.608s.129-45.988,0-46.117M160.773,218H153.2V187.82h7.568Zm35.952,0-2.334-18.36L186.483,218h-2.6l-7-18.36L173.79,218h-7.6l5.466-30.186h7.515l6.467,16.5,6.079-16.5h7.348L204.315,218Zm30.636-.264H210.234V187.818h16.493v6.243h-9.568v5.753h9.473v6.2h-9.473V211.5h10.2Z" transform="translate(0 0)" fill="#040504"/>
    </g>
  </g>
  <rect id="Rectangle_1630" data-name="Rectangle 1630" width="280" height="280" fill="none"/>
</svg>
