<svg id="Partner-logo-waypacific" xmlns="http://www.w3.org/2000/svg" xmlns:xlink="http://www.w3.org/1999/xlink" width="280" height="280" viewBox="0 0 280 280">
  <defs>
    <clipPath id="clip-path">
      <rect id="Rectangle_1621" data-name="Rectangle 1621" width="228.364" height="218.498" fill="none"/>
    </clipPath>
  </defs>
  <g id="Group_5993" data-name="Group 5993" transform="translate(26 31)">
    <path id="Path_7834" data-name="Path 7834" d="M31.126,99.767,22.46,120.478h-.08l-.716-20.711H15.7L6.718,120.557h-.08l-.4-20.791H0l1.947,28.384H8.229l8.824-20.274h.08l.716,20.274h6.2L37.367,99.767Z" transform="translate(0 89.712)" fill="#050605"/>
    <path id="Path_7835" data-name="Path 7835" d="M33.291,105.888h.08l1.392,11.289H27.17ZM31.3,99.767,14.567,128.151h6.56l3.578-6.322H35.32l.914,6.322h6.2L37.7,99.767Z" transform="translate(13.099 89.713)" fill="#050605"/>
    <path id="Path_7836" data-name="Path 7836" d="M48.134,99.767l-8.826,12.085L35.054,99.767h-6.4l6.8,17.372-2.266,11.012h6.281l2.186-10.736L55.488,99.767Z" transform="translate(25.768 89.712)" fill="#050605"/>
    <g id="Group_5992" data-name="Group 5992" transform="translate(0 0)">
      <g id="Group_5991" data-name="Group 5991" clip-path="url(#clip-path)">
        <path id="Path_7837" data-name="Path 7837" d="M61.722,99.767a17.568,17.568,0,0,1,3.958.416,8.457,8.457,0,0,1,3.119,1.371,6.408,6.408,0,0,1,2.049,2.545,9.361,9.361,0,0,1,.735,3.935,9.516,9.516,0,0,1-.895,4.2,9.26,9.26,0,0,1-2.425,3.119,11,11,0,0,1-3.519,1.951,13.065,13.065,0,0,1-4.214.674H52.818l-2.146,10.176h-6.2l5.884-28.382Zm-1.51,13.355a5.468,5.468,0,0,0,3.757-1.212,4.759,4.759,0,0,0,1.373-3.757,3.667,3.667,0,0,0-.38-1.768,2.756,2.756,0,0,0-1.014-1.075,4.54,4.54,0,0,0-1.409-.536,7.973,7.973,0,0,0-1.611-.16H55.6l-1.749,8.507Z" transform="translate(39.988 89.713)" fill="#050605"/>
        <path id="Path_7838" data-name="Path 7838" d="M77.443,99.767l4.729,28.384h-6.2l-.915-6.322H64.443l-3.576,6.322h-6.56L71.043,99.767ZM74.5,117.179l-1.39-11.291H73.03l-6.121,11.291Z" transform="translate(48.834 89.713)" fill="#050605"/>
        <path id="Path_7839" data-name="Path 7839" d="M89.184,105.99a5.142,5.142,0,0,0-3.677-1.331,7.764,7.764,0,0,0-4.156,1.092,9.253,9.253,0,0,0-2.9,2.824,12.908,12.908,0,0,0-1.69,3.855,16.305,16.305,0,0,0-.556,4.154,10,10,0,0,0,.378,2.784,6.944,6.944,0,0,0,1.153,2.325,5.53,5.53,0,0,0,1.987,1.611,6.575,6.575,0,0,0,2.923.6,6.4,6.4,0,0,0,2.406-.458,6.914,6.914,0,0,0,2.006-1.233,7.172,7.172,0,0,0,1.472-1.81,6.6,6.6,0,0,0,.794-2.144h6.241a22.434,22.434,0,0,1-2.245,5.048,13.24,13.24,0,0,1-2.9,3.358,10.253,10.253,0,0,1-3.578,1.869,15.175,15.175,0,0,1-4.273.575q-6.042,0-9.321-3.219t-3.28-9.3a19.907,19.907,0,0,1,1.073-6.56,16.917,16.917,0,0,1,3.081-5.466,15.261,15.261,0,0,1,15.921-4.471,10.258,10.258,0,0,1,3.637,2.006,8.927,8.927,0,0,1,2.366,3.3,11.118,11.118,0,0,1,.8,4.551H90.6a5.184,5.184,0,0,0-1.411-3.956" transform="translate(62.913 89.393)" fill="#050605"/>
        <path id="Path_7840" data-name="Path 7840" d="M95.834,99.767l-6,28.384H83.59l5.964-28.384Z" transform="translate(75.166 89.712)" fill="#050605"/>
        <path id="Path_7841" data-name="Path 7841" d="M114.9,99.767l-1.153,5.248H99.828l-1.39,6.558H110.6l-1.033,4.851H97.445L94.94,128.15h-6.2L94.7,99.767Z" transform="translate(79.796 89.712)" fill="#050605"/>
        <path id="Path_7842" data-name="Path 7842" d="M112.349,99.767l-6,28.384H100.1l5.964-28.384Z" transform="translate(90.016 89.712)" fill="#050605"/>
        <path id="Path_7843" data-name="Path 7843" d="M125.311,105.99a5.142,5.142,0,0,0-3.677-1.331,7.764,7.764,0,0,0-4.156,1.092,9.253,9.253,0,0,0-2.9,2.824,12.907,12.907,0,0,0-1.69,3.855,16.305,16.305,0,0,0-.556,4.154,10,10,0,0,0,.378,2.784,6.944,6.944,0,0,0,1.153,2.325,5.53,5.53,0,0,0,1.987,1.611,6.575,6.575,0,0,0,2.923.6,6.4,6.4,0,0,0,2.406-.458,6.914,6.914,0,0,0,2.006-1.233,7.172,7.172,0,0,0,1.472-1.81,6.6,6.6,0,0,0,.794-2.144h6.241a22.434,22.434,0,0,1-2.245,5.048,13.24,13.24,0,0,1-2.9,3.358,10.253,10.253,0,0,1-3.578,1.869,15.175,15.175,0,0,1-4.273.575q-6.042,0-9.321-3.219t-3.28-9.3a19.907,19.907,0,0,1,1.073-6.56,16.916,16.916,0,0,1,3.081-5.466,15.261,15.261,0,0,1,15.921-4.471,10.258,10.258,0,0,1,3.637,2.006,8.927,8.927,0,0,1,2.366,3.3,11.118,11.118,0,0,1,.8,4.551h-6.243a5.184,5.184,0,0,0-1.411-3.956" transform="translate(95.399 89.393)" fill="#050605"/>
        <path id="Path_7844" data-name="Path 7844" d="M28.4,63.039a14.171,14.171,0,0,0,4.583-.634c.357-.1.71-.215,1.062-.334a31.5,31.5,0,0,0,8.15-5.027s1.759-1.643,3.43-3.025A56.4,56.4,0,0,1,50.9,50.183a32.6,32.6,0,0,1,14.455-3.871,22.227,22.227,0,0,1,5.964.817c.125.025.4.112.424.118a3.086,3.086,0,0,1,1.987,3.12,4.458,4.458,0,0,1-.15.817L69.306,64.049q-7.632,23.543-7.6,32.479a11.1,11.1,0,0,0,2.03,6.9,6.171,6.171,0,0,0,5.117,2.682q6.25,0,12.5-9.319a2.992,2.992,0,0,0,.5-1.628,83.263,83.263,0,0,1,4.623-25.6L92.56,51.6c.6-1.5,2.323-2.249,3.6-2.9a22.043,22.043,0,0,1,6.953-2.169,26.22,26.22,0,0,1,6.383.034c1.692.211,3.453.991,3.831,2.706a4,4,0,0,1-.4,2.646l-7.16,22.113a74.573,74.573,0,0,0-4.389,21.438,12.516,12.516,0,0,0,2.114,7.637,6.641,6.641,0,0,0,5.606,2.843,12.523,12.523,0,0,0,8.129-3.168,52.1,52.1,0,0,0,7.466-8.07c.348-.463,1.168-1.622,1.168-1.622s-.625-1.056-.885-1.573a33.211,33.211,0,0,1-3.436-14.637,38.681,38.681,0,0,1,6.093-21.56q6.088-9.381,13.724-9.376,5.276,0,5.278,7.956c0,10.826-3.177,23.049-11.1,36.6-.473.777-.874,1.394-1.392,2.158,1.432,1.856,3.726,5.086,8.178,5.217,12.356.365,10.979-12.18,29.081-17.83l.006,0q.105-2.017.108-4.061A75.975,75.975,0,0,0,21.193,60.321c.209.824,3.741,2.535,7.206,2.718" transform="translate(19.057 0)" fill="#050605"/>
        <path id="Path_7845" data-name="Path 7845" d="M141.7,76.623c-4.666-.636-7.375-2.7-10.85-5.487-.418.536-1.179,1.649-1.631,2.207q-13.942,16.2-28.665,16.2c-6.218.144-11.374-4.026-14.723-8.9a25.269,25.269,0,0,1-2.036-3.631,31.075,31.075,0,0,1-2.678,3.035C75.846,85.874,69.2,89.486,60.6,89.562c-6.047.055-9.644-1.742-12.911-5.4a21.921,21.921,0,0,1-4.71-14.9,78.738,78.738,0,0,1,2.881-20.791c1.407-5.141,3.434-11.291,5.926-18.119-3.413,1.132-4.541,2.771-7.38,5.418C40.938,39,38.739,41.525,31.67,42.549c-5.567.807-9.568.144-11.16,1.124-.108,1.654-.169,3.32-.169,5A75.98,75.98,0,0,0,169.432,69.347c-10.1-1.1-15.479,8.945-27.732,7.276" transform="translate(18.291 27.295)" fill="#050605"/>
      </g>
    </g>
  </g>
  <rect id="Rectangle_1631" data-name="Rectangle 1631" width="280" height="280" fill="none"/>
</svg>
