<svg width="673" height="244" viewBox="0 0 673 244" fill="none" xmlns="http://www.w3.org/2000/svg">
    <path d="M104.079 0.861938C165.279 0.861938 197.097 24.8969 197.097 69.3219C197.097 93.1829 183.087 111.858 163.724 120.5C185.166 128.106 202.109 148.852 202.109 173.575C202.109 218.009 171.503 242.906 110.135 242.906H0V0.861938H104.079ZM57.748 49.4459V97.1609H102.693C123.439 97.1609 136.927 91.1129 136.927 73.1339C136.927 55.4949 123.439 49.4469 102.693 49.4469L57.748 49.4459ZM57.748 145.397V194.497H107.193C129.493 194.497 142.463 187.927 142.463 169.774C142.463 152.143 129.497 145.399 107.193 145.399L57.748 145.397Z"
          fill="black"/>
    <path d="M498.297 242.906H427.061L386.281 86.7879L345.501 242.906H274.257L215.879 0.861938H273.088L311.954 171.835L355.501 0.861938H417.916L461.461 172.18L500.326 0.861938H556.674L498.297 242.906Z"
          fill="black"/>
    <path d="M614.415 243.201H556.672L614.635 0.725952H672.372L614.415 243.201Z" fill="#FF0000"/>
</svg>
