<svg width="59" height="59" viewBox="0 0 59 59" fill="none" xmlns="http://www.w3.org/2000/svg">
<path d="M29.2299 58.5518C23.449 58.551 17.7981 56.8361 12.9918 53.6238C8.1855 50.4115 4.43963 45.8462 2.22787 40.5051C0.0161028 35.164 -0.562236 29.287 0.56598 23.6172C1.6942 17.9475 4.4783 12.7395 8.56625 8.65202C12.6542 4.56449 17.8624 1.78092 23.5323 0.653286C29.2022 -0.474349 35.0791 0.104592 40.42 2.31691C45.7609 4.52922 50.3258 8.27555 53.5376 13.0822C56.7493 17.8888 58.4637 23.5399 58.4639 29.3208C58.4554 37.0713 55.3726 44.5018 49.8919 49.9819C44.4112 55.4621 36.9804 58.5441 29.2299 58.5518ZM29.2299 2.43281C23.9118 2.43281 18.7131 4.00982 14.2912 6.96442C9.86932 9.91903 6.42289 14.1185 4.38773 19.0318C2.35256 23.9452 1.82007 29.3516 2.85758 34.5676C3.8951 39.7836 6.45603 44.5747 10.2165 48.3352C13.977 52.0957 18.7682 54.6566 23.9841 55.6941C29.2001 56.7317 34.6066 56.1992 39.5199 54.164C44.4332 52.1288 48.6327 48.6824 51.5873 44.2605C54.5419 39.8387 56.1189 34.6399 56.1189 29.3218C56.111 22.1928 53.2755 15.3581 48.2345 10.3172C43.1936 5.27624 36.3589 2.44075 29.2299 2.43281Z" fill="#767676"/>
<path d="M31.0297 21.4417C31.1297 21.3417 31.4817 21.1027 32.4977 21.1027C33.11 21.1071 33.7208 21.1629 34.3237 21.2697L35.3237 21.4427L36.1907 16.5917L35.1907 16.4037C31.9687 15.7957 29.3907 16.0037 27.8197 17.0087C26.8489 17.6082 26.0998 18.5076 25.6857 19.5707C25.3578 20.6208 25.2143 21.7197 25.2617 22.8187V23.8447H22.2617V28.4367H25.2617V42.5777H30.6927V28.4367H34.5927V23.8447H30.6927V23.0917C30.6927 21.8397 30.9727 21.4967 31.0297 21.4417Z" fill="#767676"/>
</svg>
