<svg width="16" height="17" viewBox="0 0 16 17" fill="none" xmlns="http://www.w3.org/2000/svg">
<mask id="mask0_3232_4698" style="mask-type:luminance" maskUnits="userSpaceOnUse" x="0" y="0" width="16" height="17">
<path d="M16 0.0708008H0V16.0708H16V0.0708008Z" fill="white"/>
</mask>
<g mask="url(#mask0_3232_4698)">
<path d="M2.39893 2.47082C3.10286 1.68911 3.96821 1.06963 4.9351 0.655243C5.902 0.240857 6.94738 0.041454 7.99893 0.0708249C9.05047 0.041454 10.0958 0.240857 11.0627 0.655243C12.0296 1.06963 12.895 1.68911 13.5989 2.47082C14.3806 3.17476 15.0001 4.0401 15.4145 5.007C15.8289 5.9739 16.0283 7.01928 15.9989 8.07082C16.0283 9.12237 15.8289 10.1677 15.4145 11.1346C15.0001 12.1015 14.3806 12.9669 13.5989 13.6708C12.895 14.4525 12.0296 15.072 11.0627 15.4864C10.0958 15.9008 9.05047 16.1002 7.99893 16.0708C6.94738 16.1002 5.902 15.9008 4.9351 15.4864C3.96821 15.072 3.10286 14.4525 2.39893 13.6708C0.890146 12.1948 0.0272447 10.1813 -0.00107454 8.07082C-0.0304454 7.01928 0.168958 5.9739 0.583344 5.007C0.997729 4.0401 1.61721 3.17476 2.39893 2.47082ZM9.06593 14.4708C9.85723 14.3297 10.569 13.9026 11.0659 13.2708C11.6122 12.4331 11.9335 11.4688 11.9989 10.4708C12.0014 10.1729 11.9436 9.8776 11.829 9.60263C11.7144 9.32766 11.5453 9.07873 11.3319 8.87082C11.1152 8.62352 10.849 8.42451 10.5504 8.2867C10.2519 8.14888 9.92771 8.07533 9.59893 8.07082H8.26593C7.85431 8.04594 7.44926 7.95582 7.06593 7.80382C6.93566 7.68656 6.83242 7.54239 6.76335 7.3813C6.69429 7.22021 6.66105 7.04603 6.66593 6.87083C6.66797 6.76771 6.69299 6.66636 6.73918 6.57415C6.78538 6.48194 6.85157 6.4012 6.93293 6.33783C7.07972 6.19728 7.26546 6.10423 7.46593 6.07083C7.59975 6.08407 7.72898 6.12681 7.84431 6.19598C7.95964 6.26514 8.05821 6.35901 8.13293 6.47083C8.39993 6.60383 8.53292 6.73782 8.66593 6.73782C8.85384 6.7575 9.04266 6.71003 9.19893 6.60383C9.30478 6.44743 9.35189 6.25862 9.33193 6.07083C9.2781 5.56045 9.04114 5.08688 8.66493 4.73782C9.08745 3.95931 9.31624 3.09047 9.33193 2.20482C9.32724 2.13555 9.29761 2.07033 9.24852 2.02123C9.19942 1.97214 9.1342 1.94251 9.06493 1.93782C8.7231 1.80165 8.36458 1.71185 7.99893 1.67082C6.76688 1.69937 5.56683 2.0687 4.53193 2.73782C4.14368 3.06305 3.83405 3.47191 3.62624 3.93378C3.41842 4.39565 3.31781 4.89855 3.33193 5.40483C3.32454 5.87793 3.41558 6.3474 3.59926 6.78345C3.78294 7.2195 4.05525 7.6126 4.39893 7.93783C5.07172 8.61022 5.9808 8.9928 6.93193 9.00382V9.53682C6.91895 9.78459 6.95999 10.0322 7.0522 10.2626C7.1444 10.4929 7.28557 10.7004 7.46593 10.8708C7.74841 11.2816 8.17806 11.5681 8.66593 11.6708V14.0708C8.66593 14.2038 8.66593 14.2038 8.79893 14.3378C8.93193 14.4718 8.93193 14.4708 9.06593 14.4708Z" fill="#FF0000"/>
</g>
</svg>
