<svg width="59" height="59" viewBox="0 0 59 59" fill="none" xmlns="http://www.w3.org/2000/svg">
<path d="M34.5035 33.9898C35.488 33.7491 36.3974 33.2681 37.1505 32.5898C38.9505 31.0818 40.7805 27.0078 39.5565 22.2018C39.192 20.971 38.7447 19.7662 38.2175 18.5958C36.9464 20.7002 35.0988 22.3962 32.8935 23.4828C31.6156 24.1498 30.2682 24.6739 28.8755 25.0458C28.8721 23.6922 28.331 22.3953 27.3714 21.4406C26.4118 20.4858 25.1122 19.9514 23.7585 19.9548C22.4048 19.9583 21.108 20.4993 20.1532 21.4589C19.1985 22.4186 18.664 23.7182 18.6675 25.0718L15.4375 26.1978L18.6675 27.9978C18.6675 27.9978 18.2915 34.6058 26.1765 38.3608C34.0615 42.1158 41.5695 36.6338 41.5695 36.6338C39.0595 36.2396 36.6557 35.3402 34.5035 33.9898ZM22.5465 25.4338C22.2506 25.425 21.9699 25.3014 21.7637 25.089C21.5575 24.8766 21.4422 24.5923 21.4422 24.2963C21.4422 24.0003 21.5575 23.716 21.7637 23.5036C21.9699 23.2913 22.2506 23.1676 22.5465 23.1588C22.8423 23.1676 23.1231 23.2913 23.3293 23.5036C23.5355 23.716 23.6508 24.0003 23.6508 24.2963C23.6508 24.5923 23.5355 24.8766 23.3293 25.089C23.1231 25.3014 22.8423 25.425 22.5465 25.4338Z" fill="#767676"/>
<path d="M29.231 0.0917969C23.4498 0.0915991 17.7983 1.80577 12.9913 5.01752C8.18431 8.22928 4.43767 12.7944 2.2252 18.1355C0.0127282 23.4766 -0.566202 29.3539 0.561612 35.024C1.68943 40.6942 4.47333 45.9026 8.56128 49.9905C12.6492 54.0785 17.8576 56.8624 23.5278 57.9902C29.1979 59.118 35.0752 58.5391 40.4163 56.3266C45.7574 54.1141 50.3225 50.3675 53.5343 45.5605C56.746 40.7535 58.4602 35.102 58.46 29.3208C58.4513 21.5715 55.369 14.142 49.8894 8.66242C44.4098 3.18281 36.9803 0.100531 29.231 0.0917969ZM29.231 56.2108C23.9129 56.2108 18.7142 54.6338 14.2924 51.6793C9.87053 48.7247 6.42411 44.5253 4.38891 39.612C2.35372 34.6987 1.82116 29.2923 2.85859 24.0764C3.89603 18.8605 6.45687 14.0693 10.2173 10.3088C13.9777 6.54822 18.7687 3.98722 23.9846 2.94958C29.2005 1.91195 34.6069 2.4443 39.5203 4.47931C44.4336 6.51432 48.6332 9.9606 51.5879 14.3823C54.5426 18.8041 56.1198 24.0027 56.12 29.3208C56.1126 36.4502 53.2774 43.2855 48.2364 48.3271C43.1954 53.3686 36.3604 56.2046 29.231 56.2128V56.2108Z" fill="#767676"/>
</svg>
