<svg width="59" height="60" viewBox="0 0 59 60" fill="none" xmlns="http://www.w3.org/2000/svg">
<path d="M29.2299 59.3819C23.4488 59.3811 17.7977 57.666 12.9913 54.4535C8.18486 51.241 4.43901 46.6754 2.22739 41.334C0.0157695 35.9926 -0.562275 30.1154 0.566347 24.4455C1.69497 18.7756 4.47957 13.5677 8.56802 9.48033C12.6565 5.393 17.8651 2.60982 23.5354 1.48275C29.2056 0.355685 35.0827 0.935339 40.4235 3.14842C45.7642 5.3615 50.3288 9.10862 53.54 13.9159C56.7512 18.7232 58.4647 24.3747 58.4639 30.1559C58.4541 37.9055 55.3707 45.3347 49.8902 50.8138C44.4096 56.2928 36.9795 59.3742 29.2299 59.3819ZM29.2299 3.26289C23.9119 3.26289 18.7134 4.83981 14.2916 7.79423C9.86982 10.7487 6.42339 14.9479 4.38811 19.861C2.35283 24.7741 1.8201 30.1803 2.85729 35.3962C3.89449 40.612 6.45502 45.4032 10.2151 49.1639C13.9752 52.9245 18.766 55.4858 23.9817 56.5237C29.1974 57.5617 34.6037 57.0298 39.5171 54.9952C44.4305 52.9607 48.6303 49.5149 51.5854 45.0935C54.5404 40.6722 56.1181 35.4739 56.1189 30.1559C56.112 23.0262 53.277 16.1905 48.236 11.1487C43.1949 6.10688 36.3596 3.27083 29.2299 3.26289Z" fill="#707070"/>
<path d="M36.1072 19.5509H22.3532C21.1192 19.5525 19.9362 20.0435 19.0637 20.9161C18.1913 21.7888 17.7005 22.9719 17.6992 24.2059V37.2779C17.7005 38.5118 18.1913 39.6948 19.0638 40.5673C19.9363 41.4398 21.1193 41.9306 22.3532 41.9319H36.1072C37.3411 41.9306 38.5241 41.4398 39.3966 40.5673C40.2691 39.6948 40.7599 38.5118 40.7612 37.2779V24.2059C40.7599 22.9719 40.2692 21.7888 39.3967 20.9161C38.5242 20.0435 37.3412 19.5525 36.1072 19.5509ZM38.7272 37.2779C38.7264 37.9725 38.4501 38.6385 37.959 39.1297C37.4678 39.6208 36.8018 39.8971 36.1072 39.8979H22.3532C21.6586 39.8971 20.9927 39.6208 20.5015 39.1297C20.0103 38.6385 19.734 37.9725 19.7332 37.2779V24.2059C19.7338 23.5112 20.01 22.8451 20.5012 22.3539C20.9924 21.8627 21.6585 21.5864 22.3532 21.5859H36.1072C36.8019 21.5864 37.468 21.8627 37.9593 22.3539C38.4505 22.8451 38.7267 23.5112 38.7272 24.2059V37.2779Z" fill="#707070"/>
<path d="M29.2317 24.4839C27.9939 24.4837 26.7839 24.8505 25.7546 25.5381C24.7254 26.2256 23.9231 27.2029 23.4493 28.3463C22.9755 29.4898 22.8514 30.7481 23.0928 31.9621C23.3341 33.1761 23.9301 34.2913 24.8052 35.1666C25.6804 36.0419 26.7954 36.638 28.0094 36.8795C29.2234 37.1211 30.4817 36.9972 31.6253 36.5236C32.7688 36.05 33.7462 35.2479 34.4339 34.2188C35.1216 33.1896 35.4887 31.9796 35.4887 30.7419C35.4871 29.0828 34.8274 27.4921 33.6543 26.3189C32.4813 25.1457 30.8907 24.4857 29.2317 24.4839ZM29.2317 34.9639C28.3967 34.9637 27.5805 34.7159 26.8863 34.2519C26.1921 33.7878 25.6512 33.1284 25.3318 32.3569C25.0124 31.5854 24.9289 30.7365 25.0919 29.9176C25.2549 29.0987 25.6571 28.3465 26.2476 27.7561C26.8381 27.1657 27.5904 26.7637 28.4094 26.6009C29.2283 26.4381 30.0772 26.5218 30.8486 26.8413C31.62 27.1609 32.2793 27.7021 32.7432 28.3964C33.2071 29.0906 33.4547 29.9069 33.4547 30.7419C33.4533 31.8614 33.008 32.9346 32.2162 33.7262C31.4245 34.5177 30.3512 34.9628 29.2317 34.9639Z" fill="#707070"/>
<path d="M35.4555 23.2069C35.2456 23.2069 35.0405 23.2692 34.866 23.3858C34.6915 23.5024 34.5555 23.6682 34.4752 23.8621C34.3949 24.0561 34.374 24.2694 34.415 24.4753C34.456 24.6811 34.5572 24.8702 34.7056 25.0185C34.8541 25.1669 35.0433 25.2678 35.2492 25.3087C35.455 25.3495 35.6684 25.3283 35.8623 25.2479C36.0561 25.1674 36.2217 25.0313 36.3382 24.8567C36.4547 24.682 36.5167 24.4768 36.5165 24.2669C36.5163 23.9857 36.4044 23.7161 36.2054 23.5173C36.0065 23.3186 35.7367 23.2069 35.4555 23.2069Z" fill="#707070"/>
</svg>
