<svg width="59" height="59" viewBox="0 0 59 59" fill="none" xmlns="http://www.w3.org/2000/svg">
<path d="M29.231 0.0917969C23.4498 0.0915991 17.7983 1.80577 12.9913 5.01752C8.1843 8.22928 4.43766 12.7944 2.22519 18.1355C0.0127168 23.4766 -0.566198 29.3539 0.561616 35.024C1.68943 40.6942 4.47333 45.9026 8.56128 49.9905C12.6492 54.0785 17.8576 56.8624 23.5278 57.9902C29.1979 59.118 35.0752 58.5391 40.4163 56.3266C45.7574 54.1141 50.3225 50.3675 53.5343 45.5605C56.746 40.7535 58.4602 35.102 58.46 29.3208C58.451 21.5715 55.3687 14.1423 49.8891 8.66272C44.4095 3.18316 36.9803 0.100795 29.231 0.0917969ZM29.231 56.2108C23.9129 56.2108 18.7142 54.6338 14.2924 51.6793C9.87054 48.7247 6.42411 44.5253 4.38892 39.612C2.35372 34.6987 1.82118 29.2923 2.85861 24.0764C3.89605 18.8605 6.45686 14.0693 10.2173 10.3088C13.9776 6.54822 18.7687 3.98722 23.9846 2.94958C29.2005 1.91195 34.607 2.4443 39.5203 4.47931C44.4336 6.51432 48.6332 9.9606 51.5879 14.3823C54.5426 18.8041 56.1198 24.0027 56.12 29.3208C56.1126 36.4502 53.2774 43.2855 48.2364 48.3271C43.1954 53.3686 36.3604 56.2046 29.231 56.2128V56.2108Z" fill="#FF0000"/>
<path d="M38.6503 20.3148H20.9993C20.5217 20.3148 20.0488 20.4089 19.6076 20.5917C19.1664 20.7745 18.7655 21.0424 18.4279 21.3801C18.0902 21.7179 17.8224 22.1188 17.6398 22.5601C17.4571 23.0013 17.3632 23.4742 17.3633 23.9518V34.6918C17.3633 35.6561 17.7464 36.581 18.4283 37.2629C19.1101 37.9447 20.035 38.3278 20.9993 38.3278H38.6503C39.6147 38.3278 40.5396 37.9448 41.2217 37.2629C41.9037 36.5811 42.287 35.6562 42.2873 34.6918V23.9518C42.2873 22.9872 41.9041 22.0621 41.222 21.3801C40.54 20.698 39.6149 20.3148 38.6503 20.3148ZM36.7503 29.3668C36.7439 29.6147 36.6635 29.8551 36.5193 30.0568C36.25 30.3018 35.9514 30.5124 35.6303 30.6838L27.7553 34.9148C27.5827 34.9917 27.3962 35.0322 27.2073 35.0338C26.9751 35.0347 26.7469 34.9736 26.5461 34.8569C26.3454 34.7401 26.1794 34.572 26.0653 34.3698C25.961 34.1827 25.9063 33.972 25.9063 33.7578V33.2758V28.6268V25.3588V24.8828C25.9061 24.6681 25.9612 24.457 26.0663 24.2698C26.2285 23.9931 26.485 23.7841 26.7888 23.6813C27.0926 23.5784 27.4233 23.5886 27.7203 23.7098C27.7203 23.7098 34.7203 27.4748 35.5203 27.9098C35.8838 28.0874 36.2204 28.3153 36.5203 28.5868C36.671 28.797 36.7518 29.0492 36.7513 29.3078L36.7503 29.3668Z" fill="#FF0000"/>
</svg>
